<svg id="Layer_2" xmlns="http://www.w3.org/2000/svg" viewBox="0 0 1070.46 454.58">
    <g id="Layer_1-2">
        <path class="cls-1"
              d="M491.85,.99c121.55-5.79,250.31,14.47,345.67,42.63,68.42,20.2,144.73,50.13,186.67,104.85,23.61,30.82,60.82,74.82,40.33,131.36-29.64,81.78-152.97,127.17-248.88,147.48-26.31,5.57-53.29,7.02-79.51,12.68-25.65,5.53-49.85,12.22-77.2,13.82-56.22,3.3-113.94-4.68-168.22-12.67-154.46-22.74-312.8-54.36-415.96-134.81C34.96,275.3-23.86,214.35,10.22,145.02c19.25-39.18,54.44-55.25,86.42-70.29C205.6,23.5,335.59,8.15,489.55,.99c.76-.04,1.54,.03,2.3,0Zm548.47,225.84c.55-18.32-11.46-38.94-20.74-49.55-26.31-30.08-72.03-54.54-114.07-72.59-44.72-19.21-89.14-33.67-141.72-44.94-103.56-22.2-220.47-35.78-345.67-29.95-74.09,3.45-143.91,10.77-207.4,29.95-59.61,18-118.06,46.7-133.66,103.71-20.09,73.38,33.46,132.5,71.43,159,95.75,66.84,232.82,80.18,379.09,96.79,154.57,17.55,301.85,1.02,409.04-49.55,52.71-24.87,106.7-53.25,114.07-124.44-14.76,21.34-38.56,43.63-62.22,59.92,14.98-27.73,50.68-39.72,51.85-78.35ZM19.43,177.28c-4.29,38.69,13.62,61.72,31.11,82.96,14.62,17.76,31.64,34.27,48.39,41.48-22.6-25.11-46.49-65.22-46.09-112.92,.31-36.96,18.19-65.17,33.42-87.57-28.86,18.7-62.35,35.68-66.83,76.05Z"/>
    </g>
</svg>