<svg width="13" height="13" viewBox="0 0 13 13" fill="none" xmlns="http://www.w3.org/2000/svg">
<path fill-rule="evenodd" clip-rule="evenodd" d="M0.749998 10.5C0.335784 10.5 -1.01152e-06 10.1642 0 9.74998L2.26329e-05 0.75C2.33072e-05 0.335787 0.335809 1.68587e-06 0.750022 1.3487e-06L9.75 0C10.1642 0 10.5 0.335786 10.5 0.749999C10.5 1.16421 10.1642 1.5 9.75 1.5L2.56068 1.5L12.7803 11.7197C13.0732 12.0125 13.0732 12.4874 12.7803 12.7803C12.4874 13.0732 12.0126 13.0732 11.7197 12.7803L1.50002 2.56066L1.5 9.74998C1.5 10.1642 1.16421 10.5 0.749998 10.5Z" fill="black"/>
</svg>
