<?xml version="1.0" encoding="utf-8"?>
<!-- Generator: Adobe Illustrator 27.0.0, SVG Export Plug-In . SVG Version: 6.00 Build 0)  -->
<svg version="1.1" id="Layer_1" xmlns="http://www.w3.org/2000/svg" xmlns:xlink="http://www.w3.org/1999/xlink" x="0px" y="0px"
     viewBox="0 0 1000 1000" style="enable-background:new 0 0 1000 1000;" xml:space="preserve">
<g>
	<path d="M120.7,208.2c13.2-3,26.5-5.4,39.9-7.4c16.6-2.4,33.2-4.1,49.9-4.9c19.6-1,39.2-1,58.8,0.2c17.2,1,34.4,2.5,51.5,5.2
		c5,0.8,10,1.6,14.9,2.9c0.7,0.2,1.4,0.4,2.1,0.6c0.3,0.1,0.5,0.2,0.8,0.3c0.3,0.1-0.6-0.3-0.2-0.1c0.1,0,0.2,0.1,0.3,0.1
		c0.4,0,0.3,0.3-0.1-0.1c-0.5-0.5-0.8-1.7-0.3-2.7c0.1-0.2,0.5-0.6,0.7-0.7c-0.4,0.2,0.7-0.2,0.3-0.1c-0.3,0-0.7,0.2-1,0.2
		c-0.6,0.1,0.7-0.1,0,0c-0.3,0-0.6,0.1-0.8,0.1c-1.4,0.1-2.8,0.2-4.2,0.2c-4.6,0.1-9.1,0.1-13.7,0.1c-15.2,0.1-30.4,0.2-45.6,0.7
		c-10.5,0.3-20.9,0.8-31.4,1.2c-11.1,0.5-22.2,1-33.2,1.6c-5,0.3-10,0.7-15,1.1c-3.6,0.3-7.2,0.7-10.8,1.4c-1,0.2-2.1,0.4-3,0.9
		c-1.7,0.9-2.4,3.1-0.9,4.6c1.2,1.3,3.5,1.5,5.2,1.8c3.1,0.5,6.2,0.8,9.3,1.1c15.4,1.4,31.1,1.7,46.5,0.5c2.7-0.2,5.4-0.4,8-1
		c1.9-0.4,4.2-1.6,3.5-4c-0.7-2.4-4.1-2.7-6.1-3c-8.6-1.3-17.4-1.9-26.1-2.6c-5.1-0.4-10.2-0.8-15.3-1.3c-2.3-0.2-4.5-0.4-6.8-0.7
		c-1-0.1-2-0.2-3-0.3c-0.5-0.1-0.9-0.1-1.4-0.2c-0.7-0.1,0.3,0-0.1,0c-0.2,0-0.5-0.1-0.7-0.1c-1.4-0.2-2.9-0.4-4.3-0.8
		c-0.5-0.1-1-0.2-1.4-0.4c-0.1,0-0.2-0.1-0.3-0.1c-0.5-0.1,0.3,0,0.3,0.1c0,0-0.4-0.2-0.4-0.2c0.2,0.1,0.4,0.3,0.6,0.7
		c0.3,0.6,0.4,1.6-0.2,2.3c-0.1,0.1-0.7,0.6-0.2,0.3c0.4-0.2-0.3,0.1-0.2,0.1c0.2-0.1,0.4-0.1,0.5-0.2c0.9-0.3,1.8-0.5,2.6-0.6
		c0.6-0.1,1.1-0.2,1.7-0.3c0.3,0,0.6-0.1,0.9-0.1c0.2,0,0.3,0,0.5-0.1c0.1,0,0.6-0.1,0.3,0c7.4-1,15-1.4,22.5-1.8
		c8.7-0.4,17.4-0.7,26.1-0.7c16.4,0,32.9,0.5,49.3,2c6.3,0.6,12.2,1.2,18.4,2.3c2.2,0.4,4.4,0.9,6.5,1.5c0.8,0.2,1.6,0.5,2.4,0.8
		c-0.7-0.3,0.1,0.1,0.3,0.2c0.3,0.1,0.5,0.3,0.8,0.5c0.4,0.2-0.3-0.4-0.2-0.1c0,0.1,0.2,0.2,0.3,0.2c0.4,0.5-0.3-0.6,0,0
		c0-0.1-0.2-0.7-0.2-0.3c0.1,0.2-0.1-0.8-0.1-0.4c0,0.3,0.2-0.8,0-0.3c0,0.1,0.4-0.7,0.1-0.3c-0.2,0.4,0.6-0.5,0.1-0.1
		c-0.1,0.1-0.3,0.2-0.4,0.3c-0.2,0.3,0.5-0.3,0.2-0.2c-0.1,0.1-0.2,0.1-0.3,0.2c-0.5,0.3-0.9,0.5-1.4,0.8c-0.2,0.1-0.3,0.1-0.5,0.2
		c-0.5,0.2,0.1,0,0,0c-0.4,0.1-0.7,0.3-1.1,0.4c-2,0.7-4.2,1.3-6.3,1.9c-7.2,1.8-14.5,3.1-21.8,4.3c-1.3,0.2-2.1,1.9-1.7,3.1
		c0.4,1.4,1.7,2,3.1,1.7c7.6-1.2,15.2-2.5,22.6-4.5c3.3-0.9,6.9-1.7,9.8-3.6c2.1-1.4,3.5-3.9,1.7-6.2c-2-2.6-6.2-3.4-9.2-4.1
		c-5.7-1.3-11.6-2-17.4-2.7c-7.7-0.8-15.4-1.4-23.1-1.8c-17.1-0.9-34.3-1.1-51.5-0.4c-8.2,0.3-16.5,0.8-24.7,1.6
		c-3,0.3-6,0.6-8.9,1.2c-1.6,0.3-3.3,0.6-4.7,1.5c-1.9,1.3-1.9,3.9,0,5.1c0.8,0.5,1.8,0.8,2.7,1c3.3,0.8,6.8,1.2,10.2,1.6
		c9.9,1.1,19.7,1.8,29.6,2.6c4.5,0.4,9,0.8,13.5,1.2c0.9,0.1,1.8,0.2,2.8,0.3c0.2,0,0.4,0,0.6,0.1c0.6,0.1-0.5-0.1,0.1,0
		c0.4,0.1,0.8,0.1,1.1,0.2c1.1,0.2,2.2,0.3,3.3,0.7c0.2,0,0.3,0.1,0.5,0.2c0.1,0-0.6-0.4-0.2-0.1c0.3,0.2-0.5-0.4-0.3-0.3
		c0.2,0.2-0.3-0.4-0.3-0.4c-0.5-0.9,0-2.6,0.6-3c-0.4,0.2,0.6-0.1,0.2-0.1c-0.1,0-0.3,0.1-0.5,0.1c-0.4,0.1-0.8,0.2-1.3,0.3
		c-1.4,0.3-1.7,0.3-3.3,0.4c-7.7,0.8-15.6,0.9-23.3,0.9c-7.7,0-15.4-0.4-23.1-0.9c-1.7-0.1-3.5-0.3-5.2-0.5
		c-0.8-0.1-1.5-0.2-2.3-0.2c-0.4,0-0.8-0.1-1.1-0.1c-0.5-0.1-0.6-0.1-0.8-0.1c-1.1-0.2-2.2-0.3-3.3-0.6c-0.4-0.1-0.8-0.2-1.1-0.3
		c-0.3-0.1-0.6-0.3,0.1,0c-0.1-0.1-0.2-0.1-0.3-0.2c0.8,0.6,1.3,2,0.7,2.9c0,0-0.5,0.6-0.3,0.4c0,0-0.7,0.5-0.3,0.3
		c0.5-0.3-0.3,0.1-0.2,0.1c0.2,0,0.4-0.1,0.5-0.2c1.1-0.3,2.3-0.5,3.4-0.7c0.4-0.1,0.7-0.1,1.1-0.2c0,0-0.5,0.1,0,0
		c0.2,0,0.5-0.1,0.7-0.1c1-0.1,1.9-0.2,2.9-0.3c2.2-0.2,4.4-0.4,6.7-0.6c11.1-0.9,22.1-1.4,33.2-1.9c8.8-0.4,17.6-0.7,26.5-1.1
		c16.4-0.7,32.7-1.1,49.1-1.2c9.8-0.1,19.7,0.2,29.4-0.3c2-0.1,5.1,0,6.2-2c1-1.6-0.1-3.3-1.6-4.1c-1.3-0.7-2.7-1.1-4.1-1.4
		c-5-1.3-10.1-2.1-15.2-2.9c-7.9-1.2-15.9-2.2-23.9-3c-19.7-2-39.5-3.2-59.3-3.1c-18.4,0-36.8,1-55.2,2.8
		c-15.3,1.6-30.6,3.8-45.8,6.7c-6.1,1.1-12.1,2.4-18.2,3.7C116.2,204.1,117.5,208.9,120.7,208.2L120.7,208.2z"/>
</g>
</svg>
